# xmcd
#
# Track frame offsets: 
#        150
#        11799
#        25720
#        38839
#        52363
#        65142
#        78150
#        92575
#        106959
#        119705
#        132218
#        146430
#        159754
#        173801
#        187523
#        199462
#        214119
#        226522
#        241703
#        254203
#        269115
#        282506
#        296204
#        310132
#        323113
#        337738
#
# Disc length: 4689 seconds
#
# Revision: 2
# Processed by: cddbd v1.5.2PL0 Copyright (c) Steve Scherf et al.
# Submitted via: ExactAudioCopy v1.2
#
DISCID=7e124f1a
DTITLE=The Carter Family - Carter Family New York City 1936 -1937 Disc
DTITLE=C
DYEAR=2003
DGENRE=Country
TTITLE0=My Native Home
TTITLE1=Sweet Heaven In My View
TTITLE2=No Depression
TTITLE3=Bonny Blue Eyes
TTITLE4=My Honey Lou
TTITLE5=In The Shadow Of The Eyes
TTITLE6=Answer To Weeping Willow
TTITLE7=You've Been A Friend To Me
TTITLE8=Where The Silvery Colorado Wends Its Way
TTITLE9=Lay My Head Beneath The Rose
TTITLE10=Broken Down Tramp, The
TTITLE11=Lover's Lane
TTITLE12=Hold Fast To The Right
TTITLE13=Lord I'm In Your Care
TTITLE14=Funny When You Feel That Way
TTITLE15=In The Shadow Of Clinch Mountain
TTITLE16=Hello Stranger
TTITLE17=Never Let The Devil Get The Upper Hand Of You
TTITLE18=When This Evening Sun Goes Down
TTITLE19=Jim Blake's Message
TTITLE20=Honey In The Rock
TTITLE21=Look How This World Has Made A Change
TTITLE22=Little Girl That Played Upon My Knee, The
TTITLE23=You Better Let That Liar Alone
TTITLE24=Farewell Nellie
TTITLE25=The Only Girl
EXTD=
EXTT0=
EXTT1=
EXTT2=
EXTT3=
EXTT4=
EXTT5=
EXTT6=
EXTT7=
EXTT8=
EXTT9=
EXTT10=
EXTT11=
EXTT12=
EXTT13=
EXTT14=
EXTT15=
EXTT16=
EXTT17=
EXTT18=
EXTT19=
EXTT20=
EXTT21=
EXTT22=
EXTT23=
EXTT24=
EXTT25=
PLAYORDER=
